<svg xmlns="http://www.w3.org/2000/svg" viewBox="0 0 256 256" fill="none" role="img" aria-labelledby="title desc">
  <title id="title">Computer vision icon</title>
  <desc id="desc">An abstract sensing frame with a central focal point and recognition markers.</desc>

  <rect width="256" height="256" fill="#FFFFFF" opacity="0.07"/>

  <g stroke="#cecfd0" stroke-width="16" stroke-linecap="round" stroke-linejoin="round">
    <path d="M94 54H70a16 16 0 0 0-16 16v24"/>
    <path d="M162 54h24a16 16 0 0 1 16 16v24"/>
    <path d="M54 162v24a16 16 0 0 0 16 16h24"/>
    <path d="M202 162v24a16 16 0 0 1-16 16h-24"/>
  </g>

  <circle cx="128" cy="128" r="24" fill="#1769FF"/>
  <circle cx="128" cy="128" r="8" fill="#FFFFFF"/>

  <g fill="#1769FF">
    <rect x="166" y="99" width="16" height="16" rx="4" transform="rotate(12 166 99)"/>
    <rect x="177" y="126" width="12" height="12" rx="3" transform="rotate(12 177 126)" opacity=".82"/>
    <circle cx="164" cy="151" r="7" opacity=".64"/>
  </g>
</svg>
